# xmcd CD database file
#
# Track frame offsets:
#	183
#	25598
#	69180
#	86475
#	115365
#	135968
#	150860
#	167650
#	181558
#	206963
#
# Disc length: 3096 seconds
#
# Revision: 0
# Processed by: cddbd v1.4PL0 Copyright (c) Steve Scherf et al.
# Submitted via: CDex 1.50beta10
#
DISCID=6d0c160a
DTITLE=Eddy Clearwater - Live At The Kingston Mines, Chicago, 1978
DYEAR=1992
DGENRE=Blues
TTITLE0=Last Nite
TTITLE1=Black Night
TTITLE2=Just A Little Bit
TTITLE3=Pretty Baby
TTITLE4=Hootchie Cootchie Man
TTITLE5=Everything's Gonna Be Alright
TTITLE6=Sweet Little Sixteen
TTITLE7=Reelin' and Rockin'
TTITLE8=Kansas City
TTITLE9=Honky Tonk
EXTD=YEAR: 1992
EXTT0=
EXTT1=
EXTT2=
EXTT3=
EXTT4=
EXTT5=
EXTT6=
EXTT7=
EXTT8=
EXTT9=
PLAYORDER=
